/* XPM */
static char *_7412c589b9141ece31ab21a63f0c6b6TU4xi1Uq79pfjcOV[] = {
/* columns rows colors chars-per-pixel */
"64 64 246 2 ",
"   c #000000",
".  c #02020C",
"X  c #01001B",
"o  c #0B071B",
"O  c #0D071B",
"+  c #1A0E10",
"@  c #170B1A",
"#  c #120B1D",
"$  c #270301",
"%  c #2C1614",
"&  c #3C261D",
"*  c #000023",
"=  c #00002D",
"-  c #1F0021",
";  c #150E21",
":  c #171123",
">  c #191326",
",  c #1D1629",
"<  c #1F182B",
"1  c #000132",
"2  c #010B37",
"3  c #04173B",
"4  c #041A3E",
"5  c #171938",
"6  c #271C20",
"7  c #221B2E",
"8  c #251E30",
"9  c #241D3D",
"0  c #341635",
"q  c #0A2431",
"w  c #1D213A",
"e  c #342827",
"r  c #262132",
"t  c #2A2435",
"y  c #22243C",
"u  c #2D2639",
"i  c #2F293A",
"p  c #3B263E",
"a  c #322C3D",
"s  c #343130",
"d  c #470C0A",
"f  c #770900",
"g  c #573014",
"h  c #792905",
"j  c #51362F",
"k  c #462B3B",
"l  c #773B2C",
"z  c #694339",
"x  c #021C40",
"c  c #0C1E40",
"v  c #141840",
"b  c #022342",
"n  c #0C2545",
"m  c #022B43",
"M  c #0B2D44",
"N  c #152844",
"B  c #183146",
"V  c #1C3549",
"C  c #19334F",
"Z  c #242B47",
"A  c #352E41",
"S  c #3B2D44",
"D  c #26374B",
"F  c #373141",
"G  c #3A3445",
"H  c #3D3848",
"J  c #3E3949",
"K  c #2A3852",
"L  c #323D57",
"P  c #413247",
"I  c #473648",
"U  c #423D4C",
"Y  c #00494D",
"T  c #2D474C",
"R  c #39455A",
"E  c #3E4961",
"W  c #45404F",
"Q  c #4D4F4F",
"!  c #594648",
"~  c #52564C",
"^  c #474151",
"/  c #4A4554",
"(  c #4D4857",
")  c #45495B",
"_  c #4E4A59",
"`  c #524D5B",
"'  c #55515E",
"]  c #585959",
"[  c #69544F",
"{  c #665948",
"}  c #5E605F",
"|  c #79634A",
" . c #4B5364",
".. c #495666",
"X. c #4A5069",
"o. c #565361",
"O. c #5A5563",
"+. c #5D5966",
"@. c #525B6B",
"#. c #5E5B69",
"$. c #625D6A",
"%. c #685869",
"&. c #735D6C",
"*. c #596474",
"=. c #696766",
"-. c #65626E",
";. c #7A6769",
":. c #7B7368",
">. c #6A6572",
",. c #676B76",
"<. c #6D6A75",
"1. c #716A75",
"2. c #726E79",
"3. c #6C717B",
"4. c #75727D",
"5. c #787579",
"6. c #851912",
"7. c #87350C",
"8. c #8A3D2E",
"9. c #9C4B1F",
"0. c #8C4328",
"q. c #864737",
"w. c #8C4C3A",
"e. c #924C38",
"r. c #965137",
"t. c #93513C",
"y. c #9A553D",
"u. c #AC5C35",
"i. c #B15D31",
"p. c #AF6039",
"a. c #B7643A",
"s. c #C06839",
"d. c #8D544B",
"f. c #9A5943",
"g. c #A25E45",
"h. c #A55E51",
"j. c #9A675B",
"k. c #AA6448",
"l. c #B46847",
"z. c #BA6A46",
"x. c #BC6D4A",
"c. c #BC714E",
"v. c #B06A50",
"b. c #BC7355",
"n. c #84676D",
"m. c #9C6D64",
"M. c #8E756C",
"N. c #B27B6A",
"B. c #C06E47",
"V. c #C97542",
"C. c #C2734C",
"Z. c #C57752",
"A. c #C27F65",
"S. c #EF981C",
"D. c #D88D2B",
"F. c #E69525",
"G. c #B38678",
"H. c #DA8F5A",
"J. c #E4955B",
"K. c #C78668",
"L. c #DC9464",
"P. c #D6936A",
"I. c #DA956B",
"U. c #CA8F74",
"Y. c #D59673",
"T. c #E19765",
"R. c #E49966",
"E. c #E99C65",
"W. c #E69C69",
"Q. c #E99E6B",
"!. c #DFA07D",
"~. c #EBA16B",
"^. c #E8A578",
"/. c #6C7489",
"(. c #7A7681",
"). c #7D7A84",
"_. c #79768A",
"`. c #827E89",
"'. c #847D88",
"]. c #937E88",
"[. c #7F818B",
"{. c #7E8CA4",
"}. c #84828B",
"|. c #89868E",
" X c #8A8690",
".X c #8D8A93",
"XX c #918E96",
"oX c #928F98",
"OX c #929097",
"+X c #95929B",
"@X c #99969E",
"#X c #A28487",
"$X c #8392AA",
"%X c #8593AB",
"&X c #8995AC",
"*X c #9799A2",
"=X c #9D9AA2",
"-X c #8C9BB2",
";X c #A19EA6",
":X c #93A2B9",
">X c #A5A3AA",
",X c #A7A5AC",
"<X c #A9A6AE",
"1X c #ADABB2",
"2X c #A6AEBC",
"3X c #B1AEB5",
"4X c #AAB2BF",
"5X c #B3B0B7",
"6X c #B6B4BA",
"7X c #B9B7BC",
"8X c #BBB9BF",
"9X c #D29B88",
"0X c #ECB390",
"qX c #F4C699",
"wX c #DAC8B4",
"eX c #F1CFAE",
"rX c #FAD8B7",
"tX c #ADB4C2",
"yX c #BEBCC1",
"uX c #B5BDCB",
"iX c #C1BEC4",
"pX c #B9C1CE",
"aX c #BCC4D2",
"sX c #C3C1C6",
"dX c #C6C5C9",
"fX c #C8C7CB",
"gX c #CBC9CE",
"hX c #C7CCD6",
"jX c #D1CFD3",
"kX c #D7D6D9",
"lX c #EEDCC8",
"zX c #F5DDC5",
"xX c #F5E2CB",
"cX c #F8E4CC",
"vX c #FAE9D5",
"bX c #FFF1DE",
"nX c #D5D8E1",
"mX c #E6E5E5",
"MX c #EBEBEB",
"NX c #F0E9E6",
"BX c #F1EEED",
"VX c #F4F1EE",
"CX c #EFEFF0",
"ZX c #F4F3F3",
"AX c #FAF6F4",
"SX c #FDFCFC",
/* pixels */
"Y { T Y T { F.| S.g X 6 o o O O # # ; ; > , , , < 7 7 8 r r r r t t t t i i i i i a i a i a a a i a i i a i i i i u u t t r r r ",
"| D.~ { F.{ ~ { F.g . 6 o o # ; ; : > , , , < 7 8 8 r 8 r t t u i a a a a a a a a A A A A F F a F A a A a a a a a i a i i u t t ",
"S.| ~ F.{ ~ F.{ { e . # # # ; ; > , , , 7 7 8 8 r t t u i i i a a a a a F F F F F G F G F F G G G F G F F F F F a a a a a a a i ",
"| D.| F.T ~ F.| D.g o 6 # ; : > , , , 7 7 8 r t t t u i a a a a a F F G G G G G G H H H J J G J H H H J J G G G G G F F a a a a ",
"X g 6 & 6 6 & 6 g 6 X : ; > > , , 7 7 r r r t u u a a a F a F F G G G G G G J J H J U J J U U U J U U J J J J J J G G G G G a F ",
"@ X X X X X X X X o : ; > , < < 7 r r t t u i a a a a F G G G J G H U U W W W W / U U / ^ ^ U U U U W U W U U U U U J J J G G G ",
"O + # @ @ O @ # : ; : , , < < r r r t i i i a a A F G G G J J J U U W A A F G G G G G G H ( / / / ^ / ^ ^ ^ ^ W U U U U U J J J ",
"O o o o O O # ; ; > , , < < r r t t t i a a F F F G G J J U J U / p F -.>.-.-.-.,.#.-.-.$.U _ _ / _ / ( / / / / / ^ W W U U U U ",
"O O O O O # ; ; > , < < 8 8 t t t i a a a F F G G J J U U U ^ ^ U #.[.MXAXAXZXZXAXSXAXSXZX/.F O.` ` ` ` _ _ ( ( ( / / / ^ W W U ",
"O O O O # ; ; > , , < 8 r r t u i a A F G G G J U U U ^ ^ / / A ).MXAXvXbXvXvXbXvXxXlXlXcXMX[.J O.` ` ` ` ` ` ` ` _ ( ( ( ( / / ",
"O O O # ; ; > , , < 8 r t u i i a F F F G J J U U W ^ ^ / _ G ).NXrXeXcXcXcXcXzXlX;.:.:.M.xXBX`./ O.O.o.o.' ' ' ` ` ` ` ` _ ( / ",
"O O # ; : > , 7 8 8 r t t i a a F G G G J U U ^ ^ ^ / _ ' S (.NXrXqXzXvXcXvXzXm.z 8.wXlXwXM.lXZX)._ +.O.O.O.O.O.O.' ' ' ` ` ` _ ",
"O # # : > , , 7 8 r t i i a a F G G J U U ^ ^ ^ / ( ( ` a [.NXrXqXqXcXvXcXvXxX8.f h.h.g.h.d h.vXBX}.o.$.$.+.+.O.O.O.O.o.' ' ` ` ",
"# ; ; > , 7 7 8 r t i i a F F G G J U U W ^ ^ ( _ ` ` ( [.bXrXqXeXcXvXcXxXcXzXy.| wXd.f 6.8.8.lXbXBX(.o.-.$.$.$.$.+.$.O.O.O.o.O.",
"; ; > , , 7 8 r t i i a a F G J U U U ^ ^ ( ( _ ` o.( -.VXrXqXqXcXvXcX^.~.^.^.L.P.n.! j n.wXN.lXvXAX`.O.>.-.-.$.$.$.$.$.$.O.+.O.",
"; > , , 7 8 r t u i a F G G J U U W ^ ^ ( _ ` ` ` O./ }.AXeXqXeXrX^.Q.E.T.E.E.E.R.L.L.W.lXcXvXcXbXZX`.$.1.>.>.-.>.>.$.$.$.$.$.+.",
": > , 7 8 8 t u i a F G G J U U W ^ / ( _ ` ` o.#.J ).NXeXqXeXrX^.E.Q.~.Q.W.R.R.Q.~.Q.Q.^.^.xXcXvXZX X-.2.<.<.>.>.>.>.$.>.$.$.$.",
"> , 7 8 8 t u a a F F G J U U ^ / / ( ` ` ' o.O.W .XVXrXqXeXqX^.R.L.L.T.P.y.t.g.L.L.Q.Q.L.R.W.^.cXAX`.>.(.2.2.1.2.<.<.<.>.>.>.$.",
", 7 7 8 t t u a F F G J U U W / / ( _ ` o.o.O.O.'.NXAXqXqXqX^.L.L.k.f.f.f.z.z.l.y.g.L.R.~.Q.W.J.0XNX*X>.(.4.2.2.2.2.2.2.<.<.>.>.",
"7 7 8 t t a a A F G J U U W / / _ ` ' ' o.+.` 4.MX9Xb.K.qXQ.H.k.y.l.i.u.a.c.Z.C.z.l.y.f.L.Q.W.W.J.0XNX+X2.(.(.(.4.2.2.2.2.<.<.<.",
"7 8 r t u a a F G J J U ^ / ( _ ` ` o.O.O.$.O.|.BXb.7.c.{ ! w.q.k.z.| [ [ d i.x.c.C.z.l.u.P.Q.R.W.J.0XBX.X4.).(.(.(.(.4.2.2.2.2.",
"7 r t u a a F G G U U ^ ^ / ( ` ' o.O.O.$.o.(.MXU.e.y.k.j z j ! j =.MXSXVXM.{ C.z.c.C.C.l.g.L.Q.Q.J.^.AXXX'.`.'.).).(.(.(.2.4.2.",
"r t t a a F G G U U ^ ^ ( _ ` ' o.O.O.O.-.o.`.AXb.0.k.g e q.q.b.u.=.SXSXSXSXMXK.a.z.a.a.z.l.a.L.Q.T.0XVXoX'.`.`.'.'.).).(.(.(.4.",
"r t i a F F G U U U ^ / ( ` ` ' o.%.$.$.>.O.}.BXK.7.j q k 0.r.C.s.K.MXSXSXSXAX;.j N.| Q g u.l.y.W.J.0XNX*X'.|.`.}.`.'.'.).'.).(.",
"t t a a F G J U U W / ( ` ` o.' +.#.$.$.<.$.`.MX9Xb.s e l e.z.x.x.Z.Z.U.AXAXU.h =.NXSXVXM.[ l.y.H.0XBX;X X X X X X|.}.}.`.`.).).",
"t a a F G G U U W / ( ` ` ' O.%.#.$.$.>.>.<.<.|.MXZX]   d.e.x.C.x.z.a.z.K.N.e.7.j.SXSXSXSXBX=.7.0XNX<X].oXXXXX.X.X X X X|.`.`.`.",
"a a F F G J U W ^ ( ( ` ' O.O.$.$.$.>.>.<.2.2.>.,XMX$.$ w.e.x.B.z.y.y.C.i.8.d.a.N.VXSXSXSXZX[ } BX3X X=X+X+XoXoXXXXX.X X X|.}.}.",
"a a F G J U W ^ / _ ` ' o.O.+.$.-.>.>.<.2.2.<..XmX,.$ q.q.e.x.z.y.l.x.v.f.e.l.B.c.j.U.AXAXU.9.=.ZX>XoX;X@X@X@X+XoXoXoX.X.X X X|.",
"a a G G U U ^ / ( ` ` o.O.$.$.$.>.>.<.1.2.4.2..XZX]   w.q.r.z.y.k.j $ $ $ q.d.l.l.8.a.K.K.a.0.5.MX1X*X;X;X;X=X+X@X+XoXoXoXXX.X|.",
"a F G G U U ^ / _ ` ' O.O.$.$.-.>.>.2.2.4.(.2.oXCX}   f.w.e.l.q.j s ..] ~ $ h q.l w.z.a.B.a.m.MX6X;X;X;X;X;X;X@X=X@X=XoXoXoXXX.X",
"F G G J U W / ( ` ' o.O.$.$.$.>.>.<.2.2.(.).(.oXCX] % L.x.e.q.f.i.j.mXSXMX=.! : j g.y.z.Z.i.j.ZX5X;X<X>X;X;X;X;X;X=X*X@X+XoXoXXX",
"F G U U W / ( ` ` ' O.+.$.$.>.>.1.2.4.(.(.).(.+XCXQ % V.C.z.r.l.Z.p.G.ZXSXSXZX:.+ j q.x.B.7.5.MX7X<X<X<X1X<X;X;X;X;X;X;X=X*X*XoX",
"F J U U U ^ ` ` ` o.O.$.$.-.>.<.2.2.4.(.(.`.).+XZX5.  j l.C.z.f.k.j + t.G.VXSXmX~ % r.c.h :.mXiX<X3X1X1X1X<X<X<X,X>X;X;X;X@X@X+X",
"G P U ^ / ( ` ` o.O.+.$.$.>.>.2.2.4.(.).).`.|.}.,XkX4.  j l.B.l.r.& 6 + % | j.m.k l k.h 5.MXfX1X6X5X5X3X1X1X1X<X<X,X>X>X;X;X=X@X",
"G U U ^ ( ( ` ' O.O.#.$.>.>.<.2.4.(.(.).}.}.}.}.).8XCX] . l l.C.k.e , s q g i.i.t.y.q.;.mXgX5X6X6X6X6X5X6X5X5X1X1X<X<X<X>X;X;X=X",
"J J U U ( _ ` ' O.$.$.$.>.<.<.2.(.).`.}.5.`.*X=X,XMXZX[ u.d.B.Z.;.o.w : & l.c.k.R.H.K.NXfX6X8XyX8X8X8X6X6X6X6X5X5X1X1X<X<X>X;X;X",
"J U ^ / ( ` ` o.O.O.$.>.>.<.4.(.<.1.2.).+X,XMXZXMX3.! v.B.l.C.Y.I.U.%.4 j r.y.L.Q.V.!.SXgX8X8X8XiXiXyX8X8X8X7X6X5X5X3X1X<X<X>X>X",
"J U ^ / ` ` ` O.$.$.$.>.<.1.-.<.XX+X+X;XMXMX,.' ..0 u.y.B.C.%.'./.n.P.&.L.E.L.~.R.p.%.MXZXjXgXgXiXiXiXiXyXyX8X7X6X6X5X5X1X<X<X>X",
"U U ^ ( ` ` o.O.$.$.>.>.<.<.}.@XMXVXVXmX4. .1 X = w.B.x.C.P.'.U.;.I.I.-.I.Q.Q.R.x.I x ) 3.MXAXMXjXsXiXsXsXiXiXyX8X6X6X5X3X1X<X,X",
"U W / ( ` ' o.O.$.$.-.1.$.OXMXMX,.@.#.@.X X Z N I k.g.U.&.Y._.&.R.I.;._./.|.I.C.p b V * = @. .4.MXkXjXsXdXsXiXiXiX8X6X6X5X3X1X<X",
"U W / _ ` ' O.+.#.-.>.o.@XmX5.R 1 X X * Z Z x 3 9 %./._.n.A.n.L.I.;.U.Y.].Y.W.z.9 m B D D = = * ,.MXZXkXdXfXdXpXsX8X8X6X6X5X3X<X",
"U ^ / _ ' ' O.+.-.-.O.+XmX3.  1 v N N N 4 m B b k h.&.U.Y.n.P.U.n.P.`.].U.#XP.! b B M M M V V b m R 3.mXkXdXdXdXsXsXiX8X7X6X5X3X",
"^ / / _ ` o.+.$.>.o.XXmX3.X 5 w x x x n M M M B x I k.b.].U.n.#._.U.].U.].I.R.S b B M M M M n n B = X 3.MXkXgXgXfXsXiXyX8X6X5X5X",
"W / ( ` ' O.+.$.` .XmX4.  N B 4 5 4 x N M M M M x 1 P X.b.P.].U._.].U.].Y.Q.T.I m B M M M M M 4 M K T . 3.MXkXgXgXdXsXiX8X8X6X5X",
"U / ( ` o.o.$.O.|.mX3.  K M M M 3 5 x M M M M M M w x S g.&.I.T.].9X].Y.~.W.Q.L.A b B x M M x M M m M T . 3.ZXjXfXgXsXsXiX8X7X5X",
"/ / ( ` ` $.` 2.CX4.. V M M M M 4 5 3 M M M M M M M 3 9 v P v.n.P.W.T.W.W.W.Q.T.! b B q b m b M M M M K = ) MXmXgXgXdXsXsX8X8X6X",
"^ ( ` ` o.O.O. XMX) * K m M M M 4 7 3 x M M M M M M M x c 2 P g.C.T.Q.W.W.W.W.Q.P.S b D m c n M M M M M D 3 ,.MXkXgXgXdXsXiX8X6X",
"U ( ` ` +.( 5.MX,.2 B M M M N M 4 5 c n n B V V M M n M v x 4 p P x.L.R.W.W.W.E.R.! b Z M x 4 M M M M M M M * ,.VXkXdXgXsXsX8X7X",
"/ ( ( ` +.` |.MX) = V M M M M M 4 < x 1 = 3 3 3 V V V V B w B b x P f.C.R.Q.W.R.W.L.I 4 Z 4 4 M M M M M 4 V 4 R ZXkXgXgXdXpX8X7X",
"/ ( ` O.U 4.MX4.1 B M M M M M M 4 5 v R R L R L 3 = 2 3 q 2 = = 1 1 l l.C.L.Q.W.W.E.C.P m c x M M M 4 4 4 V 2 ] ZXkXgXgXdXsXyX8X",
"U ( ` o./ .XMX .* V M M M M M M v = Z $X%X%X%X$X..) ..........E L L U t.z.Z.R.Q.R.W.T.x.k x 4 c M 4 M M m V 2  .AXkXhXgXdXsXyX8X",
"/ ` ` U 5.mX3.= D M M M M M M M 3 5 N R K R R X.pXpXpXpXpXaXpXpX-X%X$Xd.z.x.C.R.Q.W.W.R.l.k 3 w b M M M M V 1  .SXkXgXgXdXsXyX8X",
"/ _ ' J (.VX@.  T M M M M M M M v * K $XZ Z $XK ....*.,.*.E @...K L R S d.z.C.C.R.W.W.R.Z.l.k 2 Z B M B B V 2 _ MXkXjXgXfXsXiX8X",
"/ ( ' / |.mX#.X D M M M M M M M N = K :X-XE $X*.4X@.pXaX4X3.pXT   K $XL 7.c.B.C.T.W.Q.W.W.R.c.k 4 m m m m 4 B 2 4.ZXkXfXfXsXiX8X",
"U _ U 1.mX/.= D M M M M M M M M N 1 K :X%XX.$X*.pX,.pX*...aXaX@.2 X.$XL w.v.B.x.Z.R.W.R.W.W.R.x.k w y Z 5 n B = ) MXkXfXdXsXyX8X",
"/ _ U '.MX) X K m M M M M M M 4 v 1 K %XX.-X-X@.pX,.pXE ..pX/.4X*.$XU N &Xh.z.C.z.C.R.W.R.W.Q.R.b.w.l w.t.w.y C = 3.VXjXiXsXyX8X",
"_ F <.MX3.2 N M M M M M M M M 4 9 = L %XR -X-XX.pX*.aXnXpXE E pX*.uX..V %Xd.l.c.x.x.C.R.Q.R.W.Q.R.c.y.y.L.L.f.S X @.ZXjXiXiXyXyX",
"` A 4.ZXR X V M B M M B M M M 4 y 1 L &XZ E %X@.pX*.aXaX3.. E tX/.tX*.{.E 0 t.x.B.C.B.Z.T.Q.R.Q.Q.R.R.L.g.b.H.d.. o.ZXjXyXiXyX6X",
"_ A 1.mX3.1 4 x x x M M M M B 4 5 1 K %XC K {.*.pX,.pX/.2X*.3 *.pX@.K -XD 1 l y.z.x.C.z.C.R.Q.Q.W.Q.W.~.L.g.x.f.h 4.MXhXyXyXyX6X",
"^ ( U `.mXm.- Z y v x x x x x 3 5 x c C 1 c x L 4X*.tXD @.tXE T pXR C -XE b J q.t.z.C.x.x.Z.L.W.W.R.R.R.W.L.d.7.m.MXkXyXiXyX7X6X",
"U ( J >.ZXm.h d.q.8.A v 9 9 9 3 5 4 x Z K V V ..*...*...R ..m b T q 3 b 1 = * l 0.w.x.c.C.z.C.R.Q.Q.Q.R.W.Q.c.7.m.ZXgXyXyXyX6X5X",
"^ ( J 4.VXm.7.Z.C.x.w.q.q.w.q.9 5 1 K &X-X-X:XpXpXpXpXpXhXaX*.T C E E .... .) ( d.q.w.x.x.C.B.Z.L.R.W.Q.W.R.C.7.j.ZXjXyXyXyX6X3X",
"U / H 2.VXm.a.W.W.T.Z.x.C.z.w.9 w 1 K :X:X:X-X=.} } E ,.aXhXaXpX@.pXhXpXpXpXuX-X$Xd.0.w.e.z.z.z.C.C.L.W.T.C.l.8.M.AXfX7XyX7X6X3X",
"U / H <.BXm.a.W.W.W.T.W.T.c.8.9 w 1 D -X-XJ T &X{..   %X-X*.hXhX@.aXhX} / ] Q U  .&Xd.0.q.e.w.t.x.x.C.C.C.x.0.j.BXjXyXyX6X6X3X1X"
};
