/* XPM */
static char *_083406ceb9d4ce8cd923c85105ff401gTny2QBVIVd50URL[] = {
/* columns rows colors chars-per-pixel */
"64 64 157 2 ",
"   c #000000",
".  c #0D0D0D",
"X  c #190000",
"o  c #1D0808",
"O  c #1A1700",
"+  c #00001D",
"@  c #001A1A",
"#  c #131313",
"$  c gray11",
"%  c #281A1A",
"&  c #321A1A",
"*  c #362C00",
"=  c #272518",
"-  c #000024",
";  c #002424",
":  c #232323",
">  c #2C2323",
",  c #322F2A",
"<  c #383939",
"1  c #540000",
"2  c #5D0000",
"3  c #620000",
"4  c #690000",
"5  c #730000",
"6  c #7D0000",
"7  c #482525",
"8  c #5A3535",
"9  c #622929",
"0  c #683733",
"q  c #703838",
"w  c #544900",
"e  c #766E00",
"r  c #7E761F",
"t  c #7D7521",
"y  c #444444",
"u  c #4C5B5B",
"i  c #535252",
"p  c #595757",
"a  c #5D5D5D",
"s  c #6C4141",
"d  c #675858",
"f  c #6E5A5A",
"g  c #705555",
"h  c #556565",
"j  c #596868",
"k  c #6A6969",
"l  c #6E6B6B",
"z  c #726464",
"x  c #766C6C",
"c  c #6C7E7E",
"v  c #777777",
"b  c #7C7D7D",
"n  c #820000",
"m  c #8C0000",
"M  c #940000",
"N  c #9C0000",
"B  c #A30000",
"V  c #AD0000",
"C  c #B30000",
"Z  c #BA0000",
"A  c #C40000",
"S  c #CC0000",
"D  c #D40000",
"F  c #DB0000",
"G  c #E40000",
"H  c #ED0000",
"J  c #F30000",
"K  c #F90000",
"L  c #FA0E00",
"P  c #F50D0D",
"I  c #F61414",
"U  c #F91616",
"Y  c #FC1912",
"T  c #F61A1A",
"R  c #FA1D1D",
"E  c #CE0024",
"W  c #DB2121",
"Q  c #FC2323",
"!  c #FD2929",
"~  c #897D1B",
"^  c #877F54",
"/  c #9E9009",
"(  c #998D1C",
")  c #A19300",
"_  c #AB9B00",
"`  c #B5A200",
"'  c #BAA700",
"]  c #988D2F",
"[  c #C9B400",
"{  c #D9C300",
"}  c #DECF00",
"|  c #DCCE08",
" . c #DED012",
".. c #E3CD00",
"X. c #E7D400",
"o. c #EAD300",
"O. c #F2DA00",
"+. c #FFE600",
"@. c #FFE900",
"#. c #FEE50C",
"$. c #FFE715",
"%. c #FFEE15",
"&. c #FFE91D",
"*. c #FFF117",
"=. c #FFED23",
"-. c #FFF423",
";. c #948B4A",
":. c #8E8653",
">. c #918B66",
",. c #8F8D7D",
"<. c #93907E",
"1. c #778888",
"2. c #838686",
"3. c #868C8C",
"4. c #8D8D8D",
"5. c #819191",
"6. c #8D9595",
"7. c #8D9B9D",
"8. c #999993",
"9. c #939D9D",
"0. c #9C9C9C",
"q. c #96A3A3",
"w. c #9EAAAA",
"e. c #A5A5A5",
"r. c gray68",
"t. c #ABADB2",
"y. c #A5B1B1",
"u. c #AAB5B6",
"i. c #ACB8B8",
"p. c #B7B7B7",
"a. c #B2BEBE",
"s. c #BBBBBB",
"d. c #B5B7C0",
"f. c #BBBEC6",
"g. c #BAC5C5",
"h. c #C5C5C5",
"j. c #C3CCCC",
"k. c #CBCBCA",
"l. c #C7C9D2",
"z. c #C9CBD4",
"x. c #CDD4D4",
"c. c #D3D3D4",
"v. c #D5DCDC",
"b. c #DCDCDC",
"n. c #D7D9E1",
"m. c #DADCE4",
"M. c #DCE2E2",
"N. c #E4E6E6",
"B. c #E3E4EC",
"V. c #E5E9EB",
"C. c #EBECED",
"Z. c #EAECF1",
"A. c #EFF1F4",
"S. c #F3F4F4",
"D. c #F4F5F9",
"F. c #F7F9F9",
"G. c #FFFFFF",
/* pixels */
"% 2 3 3 3 3 3 3 3 3 3 3 3 3 3 3 3 3 3 3 3 3 3 3 3 3 3 3 3 3 3 3 3 3 3 3 3 3 3 3 3 3 3 3 3 3 3 3 3 3 3 3 3 3 3 3 3 3 3 3 3 3 2 > ",
"f G I J J J J J J J J J J J J J J J J J J J J J J J J J J J J J J J J J J J J J J J J J J J J J J J J J J J J J J J J J J I F l ",
"b F R J J J J J J J J J J J J J J K J J J J J J J J J J K J J J J J J J J J J J J J J J J J J J J J J J J J K J J J J J J R D 2.",
"3.S Q J J J J J J J J J J J J J J J J J J J J J J J J J J J J J J J J J J J J J J J K J J J J J J J J J J J J J J J J J J Q A 9.",
"q.A Q J J J J J J J J J J J J J J J J J J J J J J J J J J J J J J J J J J J J J J J J J J J J J J J J J J J J J J J J J J Q C y.",
"y.Z Q H J J J J J J J J J J J J J J J J J J J J J J J J J J J J J J J J J J J J J J J J J J J J J J J J J J J J J J J J H Q B g.",
"a.V Q J J J J J J J J J J J J J J J K J J J J J J J J J J J J J J J J J J J J J J J J J J J J J J J J J J J J J J J J J J Q M x.",
"j.N Q J J J J J J J J J J J J J J J J J J J J J J J J J J J J J J J J J J J J J J J J J J K J J J J J J J J J J J J J J J U 6 v.",
"c.m R J J J J J J J J J J J J J J J J J J J J J J J J J J J J J J J J J J J J J J J J J J J J J J J J J J J J J J J J J P J 5 V.",
"M.n U J J J J J J K J J J J K J J J J J J J K J K J J J J J J J J J J K J J J J J J J J J J J J J J J J J J J J J J J J P J s S.",
"V.5 J P J J J J J J J J J J J J J J J J J J J J J J J J J J J J J J J J J J J J J J J J J J J J J J J J J J J J J J J J I G z G.",
"S.q J P J J J J J J J J J J J J J J J J J J J J J J J J J J J J J J J J J J J J J J J K J J J J J J J J J J J J J J J J R D b G.",
"F.g H I J J J J J J J J J J J J J J J J J J J J J J J J J J J J J J J J J J J J J J J J J J J J J J J J J J J J J J J J Q S 6.G.",
"G.x F T J J J J H J J J J J J J J J J H J H J J J J J J J J J H J J J J J J H J J J J J J J J J J J J J H J J J J J J H Q Z w.G.",
"G.2.F R J K K K K K K K K K K K K K K K K K K K K K K K K K K K K K K K K K K K K K K K J K K K K K K K K K K K K K K K Q V i.G.",
"G.6.C W D D D D D D D D D D D D D D D D D D D D D D D D D D D D D D D D D D D D D D D D D D D D D D D D D D D D D D D D W n j.G.",
"G.e.  ;                                                                                                                 @   M.G.",
"G.p.  > X X X X X X X X X X X X X X X X X X X X X X X X X X X X X X X X X X X X X X X X X X X X X X X X X X X X X X X o o   V.G.",
"G.h.  :                                                                                                               .   < S.G.",
"G.c.  :                                                                                                               #   a F.G.",
"G.b.  $                                                                                                               $   v G.G.",
"G.N.  . .                                                                                                             :   4.G.G.",
"G.A.$   .                                                                                                             :   e.G.G.",
"G.S.y   #                                                                                                             :   p.G.G.",
"G.G.a   #                                                                                                             :   k.G.G.",
"G.G.v   $                                                                                                             $   b.G.G.",
"G.G.4.  $                                                                                                             #   N.G.G.",
"G.G.0.  :                                                                                                           .   > C.G.G.",
"G.G.r.  :                                                                                                           #   i F.G.G.",
"G.G.s.  , O O O O O O O O O O O O O O O O O O O O O O O O O O O O O O O O O O O O O O O O O O O O O O O O O O O O O =   l G.G.G.",
"F.G.k.  -                                                                                                           +   2.G.G.G.",
"G.G.c.* r e e e e e e e e e e e e e e e e e e e e e e e e e e e e e e e e e e e e e e e e e e e e e e e e e e e e e t w 0.G.G.G.",
"G.G.n._ *.+.+.+.+.@.+.@.+.+.@.@.@.+.@.+.@.+.@.+.@.+.+.@.@.+.+.@.@.+.@.+.@.+.@.+.@.@.+.+.@.@.+.+.@.+.@.+.@.+.@.+.@.+.=.{ t.G.G.G.",
"G.G.N.) @.#.+.+.+.+.+.+.+.+.+.+.+.+.+.+.+.+.+.+.+.+.+.+.+.+.+.+.+.+.+.+.+.+.+.+.+.+.+.+.+.+.+.+.+.+.+.+.+.+.+.+.+.+.=.[ f.G.G.G.",
"G.G.Z.] @.$.+.+.+.+.+.+.+.+.+.+.+.+.+.+.+.+.+.@.+.+.+.+.+.+.+.+.+.+.+.+.+.+.+.+.+.+.+.+.+.+.+.+.+.+.+.+.+.+.+.+.+.+.=.' z.G.F.G.",
"G.G.S.:.+.$.+.+.+.+.+.+.+.+.+.+.+.+.+.+.+.+.+.+.+.+.+.+.+.+.+.+.+.+.+.+.+.+.+.+.+.+.+.+.+.+.+.+.+.+.+.+.+.+.+.+.+.+.%._ n.G.G.G.",
"G.G.F.>.+.$.+.+.+.+.+.+.@.+.+.+.+.+.+.+.+.+.+.+.+.+.+.+.+.+.+.@.+.+.+.+.+.+.+.+.+.+.+.+.+.+.+.@.+.+.+.+.+.+.+.+.+.#.@./ B.G.G.G.",
"G.G.G.<.O.&.+.+.+.+.+.+.+.+.+.+.+.+.+.+.+.+.+.+.+.+.+.+.+.+.+.+.+.+.+.+.+.+.+.+.+.+.+.+.+.+.+.+.+.+.+.+.+.+.+.+.+.#.@.;.S.G.G.G.",
"G.G.G.8.o.&.+.+.+.+.+.+.+.+.+.+.+.+.+.+.+.+.@.+.+.+.+.+.+.+.+.+.+.+.+.+.+.+.+.+.+.@.+.+.+.+.+.+.+.+.+.+.+.+.+.@.+.$.+.>.F.G.G.G.",
"G.F.G.e...=.+.+.+.@.+.+.+.+.+.+.+.+.+.+.+.+.+.+.+.+.+.+.+.+.+.+.+.+.+.+.@.+.+.+.+.+.+.+.+.+.+.+.+.+.@.+.+.+.+.+.+.&.O.4.G.G.G.G.",
"G.G.G.t.{ =.+.+.+.+.+.+.+.+.+.+.+.+.+.+.+.+.+.+.+.+.@.+.+.+.@.+.@.+.+.+.@.+.+.+.+.+.+.+.+.+.+.+.+.+.+.+.+.@.+.+.+.&.X.8.G.G.G.G.",
"G.G.G.f.[ =.+.+.+.+.+.+.+.+.+.+.+.+.+.+.+.+.@.+.+.+.+.+.+.+.+.+.+.+.+.+.+.+.+.+.+.+.+.+.+.+.+.+.@.+.+.+.+.+.+.+.+.=.{ t.G.G.G.G.",
"G.G.G.m.) %.+.+.+.@.+.+.+.+.@.+.+.+.+.+.+.+.+.+.+.+.+.+.+.+.+.+.+.+.+.+.+.+.+.+.+.+.+.+.+.+.+.+.+.+.+.+.+.+.+.+.+.-.' l.G.G.G.G.",
"G.G.G.D.:.+.$.+.+.+.+.+.+.+.+.+.@.+.+.+.+.+.+.+.+.+.+.+.+.+.+.+.+.+.+.+.+.+.+.+.+.@.+.+.+.+.@.+.+.+.+.+.+.+.+.+.#.@.( B.G.G.G.G.",
"G.G.G.G.0...=.+.@.+.+.+.+.@.+.+.+.+.+.@.+.+.+.+.+.+.+.@.+.@.@.@.+.+.@.+.+.+.@.+.+.+.+.+.+.+.@.+.+.+.+.+.+.+.+.+.&.O.,.G.G.G.G.G.",
"G.G.G.G.l.` -.+.@.@.@.@.@.@.@.@.@.@.@.@.@.@.@.@.@.@.@.@.@.@.@.@.@.@.@.@.@.@.@.@.@.@.@.@.@.@.@.@.@.@.@.@.@.@.@.@.-.[ d.G.G.G.G.G.",
"G.G.G.G.F.^ .. .} } } } } } } } } } } } } } } } } } } } } } } } } } } } } } } } } } } } } } } } } } } } } } ..| X.~ V.G.G.G.G.G.",
"G.G.G.G.G.u.3 E A A A A A Z A A A A A A A A A A A A A A A A A A A A A A A A A A A A A A A A A A A A A A A A A E n 7.G.G.G.G.G.G.",
"G.G.G.G.G.A.0 J Y L L L L L L L L L L L L L L L L L L L L L L L L L L L L L L L L L L L L L L L L L L L L L L Y 5 N.G.G.G.G.G.G.",
"G.G.G.G.G.G.u.M ! H J J H J H J J J J J J J H J J J J J J J J J J J J J J J J J J H J J J J J J H J J H J H ! V 7.G.G.G.G.G.G.G.",
"G.G.G.G.G.G.F.a F T H J J J J J J J J J J J J J J J J J J J J J J J J J J J J J J J J J J J J J J J J J J I H 7 A.G.G.G.G.G.G.G.",
"G.G.G.G.G.G.G.c.2 R J J J J J J J J J J J J J J J J J J J K J J J J J J J J J J J J J J J J J J J J J J H ! 6 g.G.G.G.G.G.G.G.G.",
"G.G.G.G.G.G.G.G.w.M ! J J J J J J J J K J J J J J J J J J J J J J J J J K J J J J J J J J J J J J J J J ! V 5.G.G.G.G.G.G.G.G.G.",
"G.G.G.G.G.G.G.G.G.c C ! J J J J J J J J J J J J J J J J J J J J J J J J J J J J J J J J J J J J J J H Q S u S.G.G.G.G.G.G.G.G.G.",
"G.G.G.G.G.G.G.G.G.F.u A Q H P J J J J J J J J J J J J J J J J J J J J J J J J J J J J J J J J J J J Q F , C.G.G.G.G.G.G.G.G.G.G.",
"G.G.G.G.G.G.G.G.G.G.S.u A ! J J J J J J J J J J J J J J J J J J J J J J J J J J J J J J J J J J J ! D & N.G.G.G.G.G.G.G.G.G.G.G.",
"G.G.G.G.G.G.G.G.G.G.G.S.h C ! P J J J J J J J J J J J J J J J J J J J J J J J J J J J J J J J J ! A < N.G.G.G.G.G.G.G.G.G.G.G.G.",
"G.G.G.G.G.G.G.G.G.G.G.G.F.1.m I R H J J J J J J K J J J J J J J J J J J J J K J J J J J J J I Q B j A.G.G.G.G.G.G.G.G.G.G.G.G.G.",
"G.G.G.G.G.G.G.G.G.G.G.G.G.G.u.1 S ! I J J J J J J J J J J J J J J J J J J J J J J J J J P ! F 4 q.G.G.G.G.G.G.G.G.G.G.G.G.G.G.G.",
"G.G.G.G.G.G.G.G.G.G.G.G.G.G.G.M.l m G Q T J J J J J J J J J J J J J J J J J J J J J I Q H N p x.G.G.G.G.G.G.G.G.G.G.G.G.G.G.G.G.",
"G.G.G.G.G.G.G.G.G.G.G.G.G.G.G.G.G.g.p N F R Q I P J J J J J J J J J J J J J J I Q Q G B 8 u.F.G.G.G.G.G.G.G.G.G.G.G.G.G.G.G.G.G.",
"G.G.G.G.G.G.G.G.G.G.G.G.G.G.G.G.G.G.F.g.l 6 Z G K Q Q R I P J J J J I R Q Q U H A m d u.S.G.G.G.G.G.G.G.G.G.G.G.G.G.G.G.G.G.G.G.",
"G.G.G.G.G.G.G.G.G.G.G.G.G.G.G.G.G.G.G.G.G.v.w.k 6 B Z D G H J J J H H F A B 6 g 9.x.F.G.G.G.G.G.G.G.G.G.G.G.G.G.G.G.G.G.G.G.G.G.",
"G.G.G.G.G.G.G.G.G.G.G.G.G.G.G.G.G.G.G.G.G.G.G.G.V.g.e.3.x 0 3 4 3 9 z 2.q.g.M.F.G.G.G.G.G.G.G.G.G.G.G.G.G.G.G.G.G.G.G.G.G.G.G.G."
};
