/* XPM */
static char *_017ace681364081e1be0e21af0a24cbZdpy1UbgOuZngkfe[] = {
/* columns rows colors chars-per-pixel */
"64 64 128 2 ",
"   c #010000",
".  c #0C0200",
"X  c #000A00",
"o  c #100600",
"O  c #150D00",
"+  c #180D00",
"@  c #011501",
"#  c #0C1100",
"$  c #161300",
"%  c #1C1500",
"&  c #1F1804",
"*  c #1E1809",
"=  c #290F00",
"-  c #340E00",
";  c #251502",
":  c #2D1401",
">  c #211A05",
",  c #231D0B",
"<  c #241F10",
"1  c #26200E",
"2  c #29220F",
"3  c #272112",
"4  c #2A2414",
"5  c #2D2817",
"6  c #2C2719",
"7  c #2E291B",
"8  c #302916",
"9  c #322C1C",
"0  c #35301F",
"q  c #39321F",
"w  c #2F2B20",
"e  c #332E22",
"r  c #363123",
"t  c #3A3525",
"y  c #3F3926",
"u  c #373328",
"i  c #3B3629",
"p  c #3E392B",
"a  c #3F3B30",
"s  c #4D0006",
"d  c #441A0D",
"f  c #521818",
"g  c #5D1A1C",
"h  c #7C0000",
"j  c #7D0B13",
"k  c #4A211E",
"l  c #54211D",
"z  c #5D2D2B",
"x  c #403A27",
"c  c #423D2C",
"v  c #59332C",
"b  c #423E32",
"n  c #5A3B36",
"m  c #46402D",
"M  c #49432F",
"N  c #454134",
"B  c #4A4434",
"V  c #4E4836",
"C  c #474338",
"Z  c #4A463A",
"A  c #4E493B",
"S  c #514A36",
"D  c #524D3C",
"F  c #56513F",
"G  c #59533F",
"H  c #4F4B40",
"J  c #524E42",
"K  c #565145",
"L  c #5A5443",
"P  c #5E5846",
"I  c #595549",
"U  c #5E5A4B",
"Y  c #625A46",
"T  c #635C4B",
"R  c #625E51",
"E  c #69624E",
"W  c #676253",
"Q  c #6C6552",
"!  c #6F6854",
"~  c #676358",
"^  c #716A56",
"/  c #756E5A",
"(  c #76705F",
")  c #7B735E",
"_  c #7C7562",
"`  c #7F7865",
"'  c #7B7669",
"]  c #7E796C",
"[  c #820000",
"{  c #840A14",
"}  c #911C23",
"|  c #981F27",
" . c #8E2023",
".. c #912528",
"X. c #9A2128",
"o. c #883934",
"O. c #A1252C",
"+. c #BE4048",
"@. c #857161",
"#. c #817A65",
"$. c #837D6C",
"%. c #827E71",
"&. c #87806E",
"*. c #88816E",
"=. c #868174",
"-. c #8A8474",
";. c #8E8876",
":. c #8B8678",
">. c #8E897B",
",. c #908977",
"<. c #928C7D",
"1. c #9A937F",
"2. c #948F80",
"3. c #969182",
"4. c #9A9485",
"5. c #9C9788",
"6. c #9D9889",
"7. c #A19A85",
"8. c #A39D8B",
"9. c #A7A08F",
"0. c #ABA38E",
"q. c #ABA491",
"w. c #AFA893",
"e. c #B2AB96",
"r. c #B3AC99",
"t. c #C2BDB1",
"y. c #C5C2B7",
"u. c #C9C6BB",
/* pixels */
"% % % % % % % % % % % % % % % % % % % % % % % % % % % % % % % % % % % % % % % % % % % % % % % % % % % % % % % % % % % % % % % % ",
"% % % % % % % % % % % % % % % > % % % % % % % > % % % % % % % % % % % % % % % % % % % % % % % % % % % % % % % % % % % % % > % % ",
"% % % % % % > % % % % % % % % % % % % % % % % % % % % % % % % % % % % % % % % % % % % % % % % % % % % > % % % % % % % % % % % % ",
"% % % % % % % % % % % % % % % % % % % % % % % % % % % % % % % % > % % % % % % % > % % % % % % % % % % % % % % % % % % % % % % % ",
"% % % % % % % % % % % % > > % % % % % % % % % % % % % % > % % % % % % % % % % % % % % % % % % % % % % % % % > % % % > % % % % % ",
"% % % % % % % % % % > % O O % % % % % % % % % % % % % % % % % % % % % % % % % % % % % % % % % % % % % % % % % % % % % % % % % % ",
"% % % % % % % % $ > % $ 4 4 > % % % % % % % % % % % % % % % % % % % % % % % % > % % % % % % % % % % % % % % % % % % % % % % % % ",
"% % % % % % % % % >   t ^ T c 1 % % % > % % % % % % % % % % % % % % % % % % % % % % % % % % % % % % % % % % % % % % % % % % % % ",
"% % % % % % % % > o r ^ ) T B c , % % % % % % % % % % % % % % % % % % % % % % % % % % % % % % % & & & & > > > % % % % % % % % % ",
"% % % % % % % ,   9 / T y ^ S % % % % % % % % % % % % % % % % % % % % % % % % % % % > % % % > %               % % % % % % % % % ",
"% % % % % % % ,   9 / Y t ^ S $ % % % % % % % % % % > % % % % % % > % % % % % % % % % % % , % + i b p p p p i . % % % % % % % > ",
"% % % % % % % % ,   c ^ E ^ x x , + % % % % % % % % % % % % % % % % % % % % % % % % % % $ +   D 8.q.8.q.8.9.8.b   % % % % % % % ",
"> > % % % % % % ,   r Q F E V x , % % % % & % % % % % % % % % % % % % % % % % % % % % $ 7 > D 7.e.0.q.q.q.q.q.6.b O > % % % % % ",
"$ . % > % % % % % > O i E S 5 , % % % % % % % % % > % O % % % % % % % % % % % % % % 6   t 4.0.w.e.w.q.0.q.9.q.q.>.4 . > % % % % ",
"> 8 , o % % % % % % > . x E m % > > % > % % % % $ o > 4 > > % % % % % % % % % % % % ,   Z 8.r.r.u.u.e.q.q.q.q.9.4.b O * % % % % ",
"9 / , > , + > $ > > O     e 5 .   O % + % % % % , > 4 V 9 r 5 O > % % % % % % % % , . N <.0.e.t.u.y.e.0.q.q.q.5.4.] 9 o , % % % ",
"9 / B S 5 O & % + . 4 r 9     9 9 4 + > $ $ > o 9 B c D c q 4 O > % % % % % % % ,   e :.q.w.e.r.r.r.w.0.9.q.9.3.5.,.e . , $ % % ",
"% r Q T 5 + & , o c ^ L V 9 5 D D x 8 c 5 % % > O 6 F L c 1 % % % % % % % % % % <   u 2.q.8.q.w.0.0.0.q.q.q.5.5.2.#.9 o > % % % ",
"%   b ^ 9   4   < ^ / B c L c x x 0 x m c > + > $ 5 m r , % % % % % % % % % % % ,   u >.q.q.q.q.q.w.q.0.8.7.4.3.-.b + > % % % % ",
"> + > ^ p O , o t P F Y F D t B V t 9 4 M 4 % . 1 D 9   $ > % % % % % % % % % $ <   i >.8.8.8.q.9.q.8.5.5.3.3.;./ % o > % % % > ",
"% % % x ! r   x T B L L x t t x t q r > c m > $ 9 c 4 + , % % % % % % % % % % % >   9 $.3.5.5.6.6.5.5.3.3.5.,./ i > > % % % % % ",
"% >   < ^ N   c ^ x B T D B t B t t 9 % 2 m > , D 8 o ; % % % % % % % % % % % % % ,   b =.;.,.3.3.3.4.5.,.$./ r   % % % % % % % ",
"% % > O t ! > 9 Q B P D r i x x 8 8 x > > c > 8 c < o > % % % % % % % % % % % % % 3   i -.^ T =.-.$.$.*./ t 4 o > % % % % % % % ",
"% % >   6 ! c 4 F 4 t ^ P B r S m c 4 % , x 9 V 8 + > % % % % % % % % % % % % % % 3   b ,.( S T Q Q ! T c . . > % % % % % % % % ",
"% % % > O r ^ Y 7   9 ^ V 5 c 9 8 m > % % 2 x 6 # $ $ % % % % % % % % % % % % % $ <   9 <.<.p K ,.<.<.-.^ 9 + % % % % % % % % % ",
"% % % % &   c ! r   % r Q L 9 D m , % % $ & > = : : ; % % % % % % % % % % % % % % ,   5 ;.<.e o i b $.$.t . % % % % % % % % % % ",
"% % % % % % + 5 > % $ % 8 9 x 8 , % % % % X : { } X. .d @ ; % % % % % % % % % % % ,   4 $.<.b   > 6 c i 3 5 > % % % % % % % % % ",
"% % % % % % % + % % % % o % < $ + % % $ O w f { X.+.+.} - @ ; % % % % % % % > % % % , . t -.<.Y P :.<.<.=.^ < + > % % % % % % % ",
"% % % % % % % % % % % % $ 2 x > % % % o b $.z h  .| O...d @ > $ % % % % % % % % % % ,   > %.4.^ Y b a $.%.x   % % % % % % % > % ",
"% % % % % % % % % % % > O > 5 % + > . i :.J k g j [ o.@.p   3 % % % % % % % % % % % % <   C :.2.%.e 6 A b 8 9 , % % % % % % % % ",
"% % % % % % % % % % % + , , t > > $   b 2.A %.n l s v _ A   , % % % % % % % % % % % $ % + O w b e i %.<.2.=./ $ % > > > % $ % % ",
"> % % % % % % % & %   e D 9 , 5 c 5   i %.R %.I Q B   N ( b   , % % % % % % % % , < , < , 4 O     % Z b #.#.9 e .       , , > % ",
"% % % % % % % % > . c ! m q m c 5 t 4 O C ] ~ =.W Q % 5 / i   , % % % % % % 3 ,               C i Z ] B C Z N _ b r x e     o % ",
"% % % % % % % > o 2 ^ ( q t q c % 9 x >   C =.<.<.<.I ( <.Z   3 % % % % % %     r u u i p i I ] / P Z Q %./ / p E Q ! ^ D 6 9 $ ",
"% % % % % % % % >   B ! c 0 4 x 9 D 7 % *   Z i J >.>.2.4.#.,   , % % % $ * e C >.3.>.<.>.>.] A D I 9 V P R K i S D V i _ #.E t ",
"% % % % % % > $ 2   5 ^ D % , , c Y , O > ,       < R :.R / A   > % % > > e :.2.4.4.4.6.4.I Z H ] $.! Y Y ' / _ E Y Y b ~ <.$.) ",
"% % % % % % % % ,   i ^ c   & O 9 G 4 $ % % < 3 9   9 %.C i _ r   > % %   e 6.4.#.) #.1.<.J ] :.J J K D F I D V D K K ' $.2.3.3.",
"% > % % % % % % ,   t ^ i   , $ , L 4 + > % % + % 6 . I ] I _ b   , $ > i u :.$.) @.) &.3.=.J 3 a ] ^ Y Q -.$.^ D ] ;.~ W 2.6.3.",
"% % % % % % % % ,   r ^ p   , + 4 P 4 $ % % % > $ 6   b %.R ^ b   , o e :.r b ;.;.*.*.#._ A . Z 4.4.A r b ;.=./ e K 2.=.=.4.2.#.",
"% % % % % % % % ,   t ^ i   , + 2 L , + % % % % $ 3   Z %.U ( b   < . e 2.W e 2.,.<.;.;.` J ] 4.=.a     4 b c p >     I 4.4.#.@.",
"% % % % % % % % 1   r ^ x   , $ , L 9 $ % % % % $ 4   C %.R ( b   < O 6 <.<.W 3.,.3.3.;.;.' b i Z 9 9 p / ,.&.^ L B <   <.3.#.*.",
"% % % % % % % % ,   x Q i   > % $ 5 F 2 + % % % O 4   H %.U / b   , o w 2.4.W <.3.;.2.6.2.H   N $._ ^ ! b ,.-.Y p :.:.I <.3.#.*.",
"% % % % % % % ,   r Q m   > % % + , Y 4 + % % % % 4   Z %.U ( b   < o 3 2.4.L Z <.;.=.5.:.J :.>.Z 2 r 9 7 b t 4 . e b =.5.<.#.) ",
"% % % % % % % <   t / t   , % % $ < F 4 $ > % % % 4   Z %.R / b   , O i 3.4.P e ,.,.3.*.R ' I 3 7 , % e :.<.$.I r 4 * J 2.5.#.) ",
"% % % % % % % ,   t Q i   , % > % , 4 % % % % % $ <   Z $.R ( c   $ 7 >.4.2.L p 2.,.2.5.:.H   a =.' ^ ^ Z >.=.p :.2.>.>.<.3.2.$.",
"% % % % % % % > + , 0 , + % % $ 2 F , $ % % % % % % <   b ,.=.8 o + e 2.3.W % e <.3.,.$.Z   J :.K O r x r b p 5 Z i u p 9 A ,.2.",
"% % % % % % % ,   i Q i   > % $ 4 L 4 + > % % % % % 4   e 2.;.2 o + 9 2.6.T % . b <.;.b . Z >.>.9 & t ^ >.3.$.T %.b 6 e     7 e ",
"% % % % % % % ,   t ^ x   , % + , L 4 + % % % % % % 3   u >.*., . $ w 2.3.T >   9 ( B w :.:.N 7 J =.) 9 u <.$.6 a >.2.:.H 7 *   ",
"> % % % % % % ,   i ^ i   > % $ < P 2 + % % % % % $ 4   u >.-.r O O e <.! 4 % o 8 ^ / ^ Z O C -.:.B $ . e b i ,   7 3 b >.:.i % ",
"% % % % % % % ,   i ^ p   , % + 2 L 4 O % % % % > % 3   u 2.6.] e   r <.T > $ % ; 4 D ! O b %.I * . > b :.2.$.L b i e   w b K K ",
"% % % % % % % ,   t ^ x   , % $ < L 4 $ % % % % % $ 3   r :.5.] 4   e <.Q > + > . 3 Q c b $.J   > c ^ ^ N >.$.i %.>.:.H %   > 9 ",
"% % % % % % % ,   t ^ i   > > + 2 L 4 + % % % % % % % <   Z 2.:.p   i <.E > % % & > x R ( A   x ^ ^ c 5 r b p 5 b a H %./ t & . ",
"% % % % % % % ,   t ! x   > % $ 2 L , + % % % % % % % 3   i >.2.' 5 $ <.T > $ % & O   K Q + t Q B 4   e -.2.$.L $     p b F D q ",
"% % % % % % % ,   t ! x   , % + 5 L 9 $ % % % % % % $ 3   H 2.^ #.6 b 2.Q > % % & . 9 Y V c E B   < V T A :.#.r D L i .   , i D ",
"% % % % > % % ,   t ! c   < % $ , F m $ % > % % % % % 4   p =.<.$.J :.2.Y > $ % % % % x Q / r   c ! ! c e C c 5 6 9 D L t >   , ",
"% % % % % % % ,   t / D   $ % % % 5 B 5 O O % % % % % % <   H 4.-.$.3.! 8 % % % % & %   B ! x c Q B 8 < :.2.$.J o . 7 9 D F r , ",
"% % % % % % % ,   e Q G , 1 % > + % P c 4 1 % % % % % $ 4   b :.D =.3.Y O + > % % % > >   r ! ! x     > b <.$.t % ,   o 4 r D L ",
"% % % % % % % > > $ r D M x > $ % 4 F 9 x c > % & % % % 3   C %.A #.5.W , $ % % % % % > % O t t   > < $ 7 B i o $ % > > . o 5 9 ",
"% % % % % % % % > + . 4 5 , > % % % 4 + , 2 % % $ % % % % ,   H %.K :.T > % % % % % % % > >     > , . 7 :.:.F > % % % % > % . . ",
"% % % % % % % % % % > O o + % % % $ O % + + % % % % % % % 3   p <.b L t + % % % % % % % $ % , > % % & O b $.i O > % % % % % & > ",
"% % % % % % % % % % % > > % % % % % > % % % % % % % % % % <   b :.Q D > O % % % % % % % % % % % % % % % 3 p , % % % % % % % % % ",
"% % % % % % % % % % % % % % % % % % % % % % % % % % % % % % % $ p L 9 % % % % % % % % % % % % % % > o 7 -.:.K > % % % % % % % % ",
"% % % % % % % % % % % % % % % % % % % % % % % % % > % % % % & % . > % % % % % % % % % % % % % % % & % $ i T 9 $ % % % % % % % % ",
"% % % % % % % % % % % % % % % % % % > % % % % % % % % % % % % % % $ % % % % % % % % % % % % % % % % % % o > $ % % % % % % % % % "
};
