/* XPM */
static char *_ad855c1f65a45048f224135cc112b06TZae94nJOcDimblK[] = {
/* columns rows colors chars-per-pixel */
"64 64 208 2 ",
"   c #1E0000",
".  c #280013",
"X  c #321419",
"o  c #2D1725",
"O  c #2D1828",
"+  c #321E2C",
"@  c #33232D",
"#  c #38282F",
"$  c #352532",
"%  c #382731",
"&  c #362A34",
"*  c #392A35",
"=  c #3B2D39",
"-  c #34333F",
";  c #3B333C",
":  c #403236",
">  c #41343D",
",  c #683839",
"<  c #2E3A4B",
"1  c #3D3641",
"2  c #3E3843",
"3  c #3B3849",
"4  c #3D3C4A",
"5  c #343F55",
"6  c #423642",
"7  c #423B45",
"8  c #473B47",
"9  c #443D4A",
"0  c #513E48",
"q  c #483F50",
"w  c #683E44",
"e  c #743F42",
"r  c #3D414E",
"t  c #284158",
"y  c #3B4355",
"u  c #364559",
"i  c #34455B",
"p  c #2D4D69",
"a  c #344B64",
"s  c #3B4A64",
"d  c #34516E",
"f  c #2D5678",
"g  c #385573",
"h  c #3D5573",
"j  c #355C7D",
"k  c #395C7C",
"l  c #46414D",
"z  c #49424E",
"x  c #4E484D",
"c  c #57464C",
"v  c #454452",
"b  c #4C4553",
"n  c #4E4954",
"m  c #43475A",
"M  c #47485A",
"N  c #4C4C5A",
"B  c #534654",
"V  c #514B56",
"C  c #5D4855",
"Z  c #544C5B",
"A  c #4E525E",
"S  c #575356",
"D  c #54525C",
"F  c #5A555C",
"G  c #5D5A5C",
"H  c #63444D",
"J  c #6C434B",
"K  c #73464D",
"L  c #794549",
"P  c #644753",
"I  c #7B4D54",
"U  c #615F5E",
"Y  c #424F66",
"T  c #484B61",
"R  c #564B62",
"E  c #495467",
"W  c #545561",
"Q  c #5A5261",
"!  c #575967",
"~  c #5C5A64",
"^  c #555C6B",
"/  c #5B5D6B",
"(  c #4D5770",
")  c #435975",
"_  c #425D79",
"`  c #615C64",
"'  c #665D6D",
"]  c #5C626F",
"[  c #5A6372",
"{  c #5A6678",
"}  c #666363",
"|  c #696668",
" . c #6D6B68",
".. c #716F6B",
"X. c #74736F",
"o. c #78786F",
"O. c #676977",
"+. c #656A76",
"@. c #716C71",
"#. c #6B717E",
"$. c #767371",
"%. c #7A7A72",
"&. c #787678",
"*. c #853732",
"=. c #933A34",
"-. c #A43E31",
";. c #844344",
":. c #894748",
">. c #954A4A",
",. c #9A4D4D",
"<. c #864E52",
"1. c #97565F",
"2. c #A54843",
"3. c #AF5755",
"4. c #A85D62",
"5. c #82626D",
"6. c #827F7D",
"7. c #B26B72",
"8. c #86857C",
"9. c #89887F",
"0. c #3C5F82",
"q. c #3D6285",
"w. c #39668B",
"e. c #3D6B93",
"r. c #466788",
"t. c #42698C",
"y. c #5E6E82",
"u. c #5F7287",
"i. c #436C90",
"p. c #4B7194",
"a. c #527698",
"s. c #567B9C",
"d. c #5A7C9C",
"f. c #626F81",
"g. c #657486",
"h. c #6A7583",
"j. c #6D7B8C",
"k. c #7C7685",
"l. c #727C8A",
"z. c #6A7E94",
"x. c #5B7FA0",
"c. c #A07C8D",
"v. c #77808E",
"b. c #6E8297",
"n. c #788697",
"m. c #5C80A0",
"M. c #6285A4",
"N. c #6688A7",
"B. c #6889A7",
"V. c #6789A8",
"C. c #6C8CAA",
"Z. c #778CA2",
"A. c #708FAC",
"S. c #6F90AC",
"D. c #7F93A6",
"F. c #7392AE",
"G. c #7C95AE",
"H. c #7695B0",
"J. c #7996B2",
"K. c #7399B5",
"L. c #7D9AB4",
"P. c #7EA0BA",
"I. c #8A8981",
"U. c #958C89",
"Y. c #818E9C",
"T. c #858FA4",
"R. c #8392A3",
"E. c #8397AC",
"W. c #8499AD",
"Q. c #8B9CAD",
"!. c #819DB6",
"~. c #899EB3",
"^. c #839FB8",
"/. c #849FB8",
"(. c #94A1AE",
"). c #8EA2B5",
"_. c #86A1B9",
"`. c #88A3BA",
"'. c #8AA3BB",
"]. c #8AA4BB",
"[. c #8BA5BC",
"{. c #8DA6BD",
"}. c #8FA8BE",
"|. c #91A3B4",
" X c #92A6BA",
".X c #90A9BF",
"XX c #92AABF",
"oX c #9BACBD",
"OX c #8BA7C0",
"+X c #8EA9C1",
"@X c #93ABC0",
"#X c #94ACC1",
"$X c #96ADC2",
"%X c #98AFC3",
"&X c #98AFC4",
"*X c #97B0C6",
"=X c #9BB1C5",
"-X c #9CB2C5",
";X c #9DB4C9",
":X c #A1B5C6",
">X c #A1B6C9",
",X c #A5BACC",
"<X c #AABDCD",
"1X c #B3B8C5",
"2X c #A9BED0",
"3X c #AEC2D2",
"4X c #B2C4D3",
"5X c #B5C8D7",
/* pixels */
"M.M.M.M.M.M.M.M.M.M.M.M.M.M.m.M.M.M.M.N.N.N.V.V.C.V.C.C.V.C.C.C.C.C.C.C.C.C.V.C.V.C.N.B.B.B.V.V.M.M.M.M.M.M.M.M.M.M.m.M.M.M.M.m.",
"M.M.M.M.M.M.M.M.M.m.m.M.M.M.M.M.N.V.V.V.V.B.V.B.C.C.C.C.C.C.F.C.A.C.C.C.S.C.C.C.C.C.C.V.C.V.B.B.N.M.M.M.M.M.M.M.M.M.m.M.M.M.M.M.",
"M.m.M.M.M.m.M.M.M.M.M.M.M.M.M.M.B.B.V.B.V.C.C.C.C.C.F.S.C.F.F.F.F.F.S.F.F.C.F.F.C.C.C.C.C.C.C.B.V.B.V.N.M.M.M.M.M.M.M.M.M.m.M.M.",
"M.M.M.M.M.M.M.M.M.M.M.M.V.M.V.C.B.C.C.C.C.F.C.H.F.A.F.F.F.F.F.F.F.F.F.F.F.F.F.F.F.F.F.F.F.C.C.C.C.V.B.N.N.M.M.M.M.m.M.M.M.M.M.M.",
"M.M.M.M.m.M.m.M.M.M.M.M.V.V.V.C.C.C.C.C.F.F.F.F.F.F.F.H.F.H.F.J.H.H.H.H.H.H.F.H.F.F.F.F.F.S.C.C.C.C.C.V.V.V.N.N.M.M.m.M.M.M.m.M.",
"M.M.M.M.M.M.M.M.M.M.V.V.V.C.C.C.C.A.F.F.F.F.F.F.H.G.H.H.J.J.J.J.H.J.J.G.J.J.J.H.H.H.H.F.F.H.F.F.A.F.C.C.V.C.B.B.V.M.M.M.M.M.M.M.",
"m.M.m.M.M.m.M.M.M.V.V.V.C.C.C.C.A.F.F.F.F.H.F.J.H.H.L.H.L.L.J.L.L.L.L.L.L.J.L.J.J.J.H.H.H.H.F.F.F.C.S.C.F.V.V.B.V.M.N.M.M.M.M.M.",
"m.M.M.M.M.M.M.V.V.V.C.C.C.C.A.A.F.F.H.F.H.J.J.J.L.L.L.L.L.L.L.L.L.L.L.L.L.L.L.L.L.J.L.L.H.H.H.H.H.F.F.S.S.C.C.C.V.V.M.M.M.M.m.M.",
"M.m.M.M.M.M.V.V.V.B.C.C.F.S.F.F.F.H.H.J.J.L.L.L.L.L.!.!.!.!.!.!.!.L.!.!.!.!.L.L.L.L.L.L.L.J.J.H.J.F.F.F.H.C.C.C.C.V.V.M.M.M.M.M.",
"M.M.M.M.M.M.V.B.C.C.C.A.A.F.F.H.H.G.L.J.L.L.L.!.!.!.!.!./.!./.!._.^._._._.!.!._._.L.!.L.L.L.L.L.J.J.H.H.H.A.H.C.C.C.C.V.V.M.M.M.",
"M.M.M.M.M.V.V.B.C.C.A.A.F.H.H.H.J.L.L.L.L.!.!.!.!./././._././.`._._._._._._._._._.!._.L.!.L.L.L.L.J.J.H.H.A.A.A.S.C.C.C.V.M.M.M.",
"M.M.M.M.V.V.C.C.C.A.F.F.F.H.J.J.L.L.L.!.!.!.!._./././._.`.`.`.`.`._.[._._.`._._._._._._.^.!.!.L.L.L.J.H.H.H.H.F.S.C.C.C.B.V.N.M.",
"M.M.V.V.B.C.C.C.C.F.F.H.H.H.L.L.L.L.!.!././././.`.`.`.`.`.{.{.{.[.[.[.[.[.[.].`._.]._._._.!.^.!.L.L.L.L.J.J.H.F.F.C.F.C.C.V.V.V.",
"m.M.M.V.B.C.C.F.F.F.H.H.J.L.L.L.!.!.!././._.`.`.{.`.{.{.{.{.{.{.}.}.{.}.}.[.{.[.].].].].]._._.^.!.!.!.L.L.J.H.H.F.F.F.C.C.V.V.B.",
"M.M.V.B.C.C.S.F.F.H.H.J.L.L.L.L.!./._._.`.`.`.{.{.{.{.XX{.XXXX@XXXXX@X}.}.}.}.{.{.}.!.F.G.J.H.H.J.!.!.!.L.L.J.J.J.F.F.F.C.C.V.V.",
"V.V.B.C.C.C.F.F.F.H.H.L.L.!.L._././.`.`.`.[.{.{.XX{.XXXXXX@X@X@X@X@X@X@X@X@X@X@X@X!.w.w.e.s.m.s.C.B.F.J.!.L.L.J.J.H.F.F.F.S.C.C.",
"M.V.C.C.C.S.F.H.F.L.L.L.L.L.!./._.`.`.[.{.{.{.@XXX@X@X@X$X$X$X$X$X$X$X$X$X$XXX$XW.M s ) q.w.t.e.a.t.a.B.C.L.!.L.J.H.H.F.F.C.C.C.",
"V.V.C.C.F.F.H.H.J.J.L.L.!.^./._.`.`.'.{.{.XXXX@X@X@X$X$X$X%X%X%X$X=X*X=X$X$X=X=X! > z 8 v Y Y h q.j j p.s.C.G.L.L.L.J.F.F.A.A.C.",
"B.V.S.C.S.F.F.H.J.L.L.!.^./._.`.`.{.{.{.XX@X@X@X%X%X%X%X=X=X=X-X=X=X=X=X=X;X).{ 6 7 2 2 > : = ; 9 N M s w.t.w.F.L.K.J.J.F.F.F.C.",
"V.C.C.F.H.H.H.J.L.L.!.!.^._._.[.{.{.XXXX@X@X&X$X%X%X-X-X-X-X-X-X-X;X;X;X>X).b # 7 2 2 6 8 v m v b ' k.F a 0.( 1.7.c.R.L.K.H.F.C.",
"C.C.A.C.z.C.L.J.L.L.!./._._.[.[.{.{.XX@X@X$X$X=X=X=X;X-X;X:X:X:X:X:X:X>X|.n ; l 2 2 z m ) 0.t._ B ' ' Q ; w ,.3.2.-.2.4.c.A.A.A.",
"C.C.C.H.u.= y.L.!.!.!._._.`.[.{.@XXX@X$X%X%X=X=X-X:X;X:X>X>X>X:X,X:X>X<Xl.O 7 2 2 6 b u a f q.w._ N n 3 i H *.*.I k.k.5.=.Y.H.A.",
"C.S.C.H.L.u.# [ F._.!._.`.{.{.}.XX@X@X$X&X=X-X-X:X>X>X>X>X,X>X<X,X,X>X3Xv.@ 7 2 ; z l i g j q.w.i.e.d a 5 r z.n.W.L.L.L.F.A.H.A.",
"C.S.H.H.H.L.^ X N Z.[._.`.{.}.}.@X@X%X&X=X-X-X>X>X>X>X,X,X<X<X<X<X>X<X3Xv.o l 2 7 8 t i p p d 0.d M y 3 7 Z.+X[.`.^.!.!.L.J.H.H.",
"A.C.H.H.H.L.b.; & ; j.OX[.{.}.@X$X$X=X&X-X;X:X:X,X,X,X<X<X<X<X<X<X<X4X=X( 6 7 2 2 4 3 < < t u y 7 8 % ! ~.@X`./././.L.L.L.J.J.H.",
"A.H.H.H.J.L.^.b.v % = j.[.+XXX@X$X$X=X-X;X:X>X,X,X,X<X<X<X<X<X3X4X4X>XC.q.v 9 7 6 ; ; 2 2 3 2 > 7 1 ; W.&X'.{.`.'./.^.L.L.J.H.H.",
"C.S.H.H.J.L.L._.!.g.; % ] W.$X$XoX=X-X-X;X>X>X,X<X<X<X<X<X4X4X<X*X_.M.C.S.p.) E v M l 7 4 ; 2 7 b 6 Z.=X{.OX[.[.'.'.^.^.L.L.J.H.",
"H.F.H.H.J.L.!.!._.OXz.% ; ; n.;X=X%X-X;X:X,X,X<X<X<X3X<X4X4X Xp.t.i.s.d.d.m.s.m.p.p.s.k h z n D B O.&X@X@X@XXX[._.^.^.L.^.L.J.H.",
"A.H.H.L.J.L.!.^._._.+Xb.@ = ; n.XX;X;X:X>X,X,X<X<X<X3X5X1XU.C f t.g w.k q.i k r.s k _ C H c b N = R.;X@X@X@X{.'.OX/././.L.L.L.H.",
"A.H.H.H.L.L.!./._.`.].XXD.D + ; n R.;X,X>X,X<X<X<X4X4X(.<.=.:.b 4 T J B i c H 6 e e , , 0 l z 7 1 ~.;X@X@X@X@X[.[./././.!.L.L.H.",
"A.H.H.L.L.^.^./._.`.{.{.$XXXj.# 1 * h.oX2X<X<X<X4X:Xv.O - C P :.:.;.<.K :.,.I L >.>.K M v 9 7 * D -X-X%X@X@X@XOX X'././.!.L.L.H.",
"H.H.H.H.L.L.^.^.`.].{.}.}.$X=Xh.& l @ n R.<X<X4XoX0 @ 7 6 4 0 ;.w P K ,.>.>.P ,.;.w B Z b 7 2 ; N %X-X$X$X@X@X{.'.'./.^.!.!.L.J.",
"F.F.H.L.L.!./._.`.[.{.}.@X$X X#.U b l 1 % #.:X4XO.o l 8 V V l ; v z w :.e B P e 0 l M Z 8 2 7 @ l.>X=X=X$X@XXX}.{.`.`./.!.!.L.J.",
"F.H.H.L.L.L._._.`.[.{.}.XX=X XG V Q Z b l o ! O.2 8 v Z V l ; 2 1 1 7 c 0 4 7 b b b z V n 9 8 $ R.>X=X=X$X$XXX}.{.]._./.!.!.L.J.",
"F.H.H.L.!.!.!._.`.[.}.@X@X$X;XE.U X.F Z Z b ; % 4 z W Z 7 2 2 7 1 2 2 2 2 l Z Z z U } v b B z q  X>X=X=X&X$X@X}.{.]._._./.L.L.L.",
"F.H.G.L.!.!._._._.[.{.@X X$X=Xn.U | V n Z Q b 9 9 V Z 7 8 7 ; 2 2 1 2 ; z Q Q V | 9.$.@.~ v V / -X:X=X=X$X@X@X}.{.]._._.!.!.L.J.",
"H.H.L.L.!.!._._.[.[.{.}.@X@X=X).F n V b l b b 9 n b z 9 4 4 6 7 7 1 7 V Q Z z G $.$.G 9.$.Q + R.,X:X-X=X$X@X@X}.{.].`._.!.!.L.J.",
"F.H.F.L.L.!.!._._.{.{.XX@XoX&X.XQ } n z l 7 l n Z l 7 2 7 8 4 ; 1 l Z Z b n V 9 8 3 } $.O.Q 1  X,X;X-XoX$X$XXXXX{.]._././.!.L.J.",
"F.F.H.L.L.!.!._.`.[.}.}.@X$X&XXXl.l S x 8 8 v Z z 6 7 l 8 2 1 8 b Z V z  .%.} | ~ V q 9 B = #.>X:X;X-X=X$X$XXX}.{.]._._.!.L.L.L.",
"F.H.H.L.L.!./._.`.[.{.XX@X$X&XQ.8 | o.S V q V b 2 q v 7 1 2 9 Z F v l V S D  .U.%.| q b b + #.,X:X;X-X=X$XXXXXXX{.].`._.!.!.L.J.",
"F.H.J.L.L.!.!._._.[.{.}.@X@X;XR.> c | o.v B b 8 v z 7 1 7 b Z Z b G U Z 7 b 8.9...| $.` b * l.2X>X-X-X&X@X@X@X{.{.`._./.!.L.L.J.",
"F.H.H.J.L.L.!._._.[.{.}.XX@X$X%XW.l.` 8 b Z b 9 8 1 1 7 Z Z x z | 8.&.S b b G ~ ' I.9.@.1 O.,X:X:X-X-X%X$X@X@X{.`.`._._.!.!.L.J.",
"F.F.J.L.L.L.!._._.`.{.{.XX@X@X&X>X>XQ./ B Z z 7 1 7 b Z b Z 9 V %.$.` $.Q Z n 7 }  .G b * Q.2X:X;X-X&X%X@X@X.X{.].`._.!.!.L.L.J.",
"F.F.F.L.L.L.!.!._.`.[.{.XX@X@X%X%X-X>X>X+.7 7 1 9 b Z b } ` v b n 7 | U. .$.$.9 b 9 b . l.2X:X>X-X&X&X$X@XXX{.{.]._._.!.L.L.L.H.",
"F.F.H.J.L.L.L./._._.[.{.}.+X@X$X&X&X>XQ.b 2 b n Z b z } &.F v D Z z ~ } | 8.| V 6 = % h.-X>X>X-X-X&X%X$XXX.X{.[.`.`._.!.!.L.J.H.",
"F.F.F.J.L.L.!.!./.`.`.{.{.@X@X@X%X;X Xb O 7 = 6 z n  .8.I.V ` 8.F U G b G S x > h.Q.Y.<X<X:X>X-X-X&X%X@XXXXX{.[.`./.!.!.L.L.J.G.",
"C.F.F.J.J.L.L.!.!._.`.'.{.@X@X@X%X X[ + W ).R.[ 7 > ..I.@.R 6.X.7 F U n 3 z l.v.<X3X2X>X:X>X-X-X&X%X$XXX+X{.{.`._./.!.!.L.J.H.H.",
"C.F.F.F.J.L.L.!.^./._._.[.{.@X@X=Xn.  D  X,X,X>XoXl.* S b $.%.; + 1 7 & +.oX<X,X<X>X>X>X:X-X-X&X%X$X@XXXXX{.`.`._././.L.L.J.H.H.",
"C.F.F.F.H.J.L.L.^.^._._.[.{.{.@X{.Z / ).;X=X;X:X,X<Xn.O F o.x ] n.8 l 7 (.3X,X,X,X>X>X:X-X=X=X=X@X@X@XXX{.{.`.`./.!.!.L.J.J.G.F.",
"C.F.F.F.H.H.L.L.L.^._._.`.[.{.+X{.~.$X=X$X=X-X;X;X:X,X+.& N # (.4Xh.@ ! >X<X:X>X:X:X;X;X-X=X$X$X$X@X@X{.{.`.`././.!.L.L.J.J.F.F.",
"C.C.C.H.H.H.J.L.L.!.^._.`.`.{.{.XX$X@X$X=X%X=X=X;X-X,XQ.@ 1 2 oX:XD = A -X,X>X>X;X;X-X-X=X%X$X@X@X.X.X{.{.`././.!.!.L.L.J.H.J.F.",
"C.C.C.F.H.H.J.J.L.!.!.^._.`.`.{.{.{.XX@X$X$X%X=X-X=X>X~.= & +.,XoXv # D -X>X-X-X-X-X=X&X%X$X@X@X.X.X{.`.`.`././.!.!.L.J.J.F.F.A.",
"B.C.S.F.F.H.H.J.L.L.!.!./._.`.`.{.{.XXXXXX$X$X$X=X%X;XQ.; o j.,X=X] o x $X;X;X=X-X=X$X$X$X$XXXXX.X{.[.'.`./.!.!.L.L.L.J.H.H.F.C.",
"B.C.C.C.F.F.H.H.J.L.L.!././._.`.`.[.{.XXXX@X$X$X$X$X;XW.o v  X;X>Xb.  h.-X*X=X=X=XoX$X@XXXXX}.}.{.'.'.`././.!.!.L.J.J.H.F.F.F.A.",
"B.B.C.F.C.F.H.H.J.L.L.!.!././.`.].{.].{.{.@XXXXX$X@X=X).@ +.-X$X-X).& j.;X$X$X*X$X@X@X@XXXXX{.{.[.`.`././.!.!.!.L.J.H.H.F.F.C.C.",
"V.V.V.C.C.H.S.H.H.G.L.L.L.!././._._.`.{.{.{.}.XXXXXX@X&Xn n.&X$X$X-Xh.2 oX$X$X@X@X@XXXXX}.{.{.].`.`./././.!.L.L.J.J.H.F.F.F.C.C.",
"M.V.B.C.C.F.F.F.H.H.J.L.L.L.!.^._._._._.].{.{.{.}.}.XX}.] _.*XXX@X*X).l W.$X}.}.@X{.{.{.{.[.[.]._._._._.L.L.L.L.J.H.H.A.C.C.C.C.",
"M.V.V.B.C.C.C.F.F.H.H.J.L.L.L.!.!._._._._.].].{.{.}.}.}.] ).$X}.@XXX$X^ j.$X}.}.}.}.{.[.[.[._._._._.L.L.L.L.J.J.H.H.H.F.A.C.C.B.",
"M.M.V.B.V.C.S.S.F.H.F.H.J.L.L.L.!._.!._._._.].].].].[.[.] !.+X}.}.}.@Xj.A }.}.[.[.[.[.[._._._._.!.!.L.L.L.L.J.H.H.F.F.C.C.B.B.B.",
"M.M.V.B.V.V.C.C.C.F.H.H.H.J.L.L.L.L.!._._./._._.`.]._._.] ~.}.[.[.].+XL.v _.}._.[._._._._./.!.!.!.L.L.L.L.H.H.F.F.A.C.C.C.B.V.V.",
"M.M.M.M.B.B.C.C.C.A.F.F.H.H.H.J.L.L.L.L.!._._._._._._._.] G.+X_.].].[.[.[ f.OX_._._._._.!._.L.L.L.L.L.H.H.H.F.F.F.F.C.C.B.V.V.M.",
"M.M.M.M.M.V.B.C.C.A.C.F.H.F.H.J.J.L.L.L.L.L.!.!._.!._._.v N G.]._._._._.W.A L._.L._._.L.!.!.L.L.L.L.L.H.H.H.F.F.C.C.C.C.C.V.M.M.",
"M.m.M.M.M.V.B.V.C.C.A.F.F.F.H.H.L.J.L.L.L.L.L.!.!._.!._.g.X l L._._._._._.A { +X_._.!.L.L.L.L.L.H.L.F.F.F.F.C.F.C.C.B.B.N.M.M.M.",
"M.M.M.M.M.M.V.B.V.B.C.C.C.A.A.F.F.F.F.J.L.L.L.L.L.L.L.L.L.F.] Z._.L.P.L._.b.; { b.L.L.L.L.L.H.L.H.H.H.F.F.S.F.C.C.B.B.N.M.M.M.M."
};
